# xmcd
#
# Track frame offsets: 
#        150
#        17757
#        37650
#        66372
#
# Disc length: 1367 seconds
#
# Revision: 1
# Processed by: cddbd v1.5.2PL0 Copyright (c) Steve Scherf et al.
# Submitted via: ExactAudioCopy v1.1
#
DISCID=28055504
DTITLE=Black Eyed Peas feat. Macy Gray - Request and Line
DYEAR=2001
DGENRE=Hip-Hop
TTITLE0=Black Eyed Peas feat. Macy Gray - Request and Line Album Version
TTITLE1=Black Eyed Peas feat. Macy Gray - Request and Line William Remix
TTITLE2=Black Eyed Peas feat. Macy Gray - Request and Line Track Masters
TTITLE2=Remix
TTITLE3=VIDEO
EXTD=
EXTT0=
EXTT1=
EXTT2=
EXTT3=
PLAYORDER=
